<svg width="140" height="33" viewBox="0 0 140 33" fill="none" xmlns="http://www.w3.org/2000/svg">
<path d="M86.6968 16.216V22.4883H94.4148V24.2343H86.6968V30.9312H94.6938V32.6711H84.8623V14.488H94.6998V16.216H86.6968ZM97.5376 14.4761H103.184C107.648 14.4761 110.539 17.6571 110.539 23.5646C110.539 29.4722 107.648 32.6592 103.184 32.6592H97.5376V14.4761ZM103.023 30.9192C106.431 30.9192 108.592 28.5275 108.592 23.5646C108.592 18.6018 106.431 16.216 103.023 16.216H99.3721V30.9312L103.023 30.9192ZM127.014 23.7141V24.3659C127.014 30.3452 124.337 33 120.205 33C115.455 33 112.795 29.4124 112.795 23.5766C112.795 17.7408 115.449 14.1591 120.151 14.1591C123.713 14.1591 126.088 16.228 126.718 19.2236H124.746C124.452 18.2432 123.838 17.3909 123.005 16.8033C122.172 16.2157 121.167 15.9268 120.151 15.9828C116.637 15.9828 114.743 18.7333 114.743 23.5766C114.743 28.4198 116.66 31.1644 120.175 31.1644C123.144 31.1644 124.925 29.4483 125.097 25.3883H120.769V23.7141H127.014ZM131.829 16.216V22.4883H139.547V24.2343H131.829V30.9312H139.832V32.6711H129.983V14.488H139.82V16.216H131.829Z" fill="black"/>
<path d="M40.3939 14.4879H46.6633C51.3713 14.4879 54.316 17.6689 54.316 23.5765C54.316 29.4841 51.3475 32.671 46.6633 32.671H40.3939V14.4879ZM46.3961 29.2688C48.9075 29.2688 50.552 27.5826 50.552 23.5765C50.552 19.5703 48.9312 17.8901 46.3961 17.8901H44.0214V29.2509L46.3961 29.2688Z" fill="black"/>
<path d="M59.7662 17.8901V21.7289H66.4571V25.1311H59.7484V29.2688H66.7243V32.671H56.1209V14.4879H66.7421V17.8901H59.7662Z" fill="black"/>
<path d="M83.1272 14.4879L77.2377 32.671H73.5806L67.7149 14.4879H71.467L75.332 27.2H75.4982L79.3631 14.4879H83.1272Z" fill="black"/>
<path d="M32.3319 25.1552H29.8444V32.6713H32.3319V25.1552Z" fill="#E20074"/>
<path d="M26.3643 32.6711H23.8767V23.6304L29.8433 18.6197V0.107697H32.3309V19.7916L26.3643 24.8023V32.6711Z" fill="#E20074"/>
<path d="M2.48757 13.8842H0V32.6712H2.48757V13.8842Z" fill="#E20074"/>
<path d="M8.45253 0.107697H5.96497V7.62371H8.45253V0.107697Z" fill="#E20074"/>
<path d="M14.4264 0.107697H11.9388V17.6451H14.4264V0.107697Z" fill="#E20074"/>
<path d="M8.45253 25.1552H5.96497V32.6713H8.45253V25.1552Z" fill="#E20074"/>
<path d="M11.9367 20.1425L11.9237 32.6692L14.4113 32.6718L14.4243 20.1452L11.9367 20.1425Z" fill="#E20074"/>
<path d="M20.394 0.107697H17.9064V10.129H20.394V0.107697Z" fill="#E20074"/>
<path d="M20.394 12.6284H17.9064V20.1445H20.394V12.6284Z" fill="#E20074"/>
<path d="M26.3643 0.107697H23.8767V17.6451H26.3643V0.107697Z" fill="#E20074"/>
<path d="M20.394 22.6496H17.9064V32.671H20.394V22.6496Z" fill="#E20074"/>
<path d="M8.45417 22.6497H5.9666V14.47L0 9.45936V0.107697H2.48757V8.28741L8.45417 13.2981V22.6497Z" fill="#E20074"/>
<path d="M77.3809 1.71005C77.491 1.71085 77.6003 1.68959 77.7022 1.6475C77.8041 1.60541 77.8967 1.54334 77.9746 1.4649C78.1286 1.30473 78.2139 1.08995 78.2121 0.866966C78.2149 0.755199 78.1942 0.644096 78.1512 0.541015C78.1082 0.437934 78.044 0.345226 77.9627 0.269034C77.8883 0.185624 77.7965 0.119847 77.6938 0.076426C77.5912 0.0330052 77.4803 0.0130188 77.369 0.0179019C77.1477 0.0166536 76.9347 0.102471 76.7753 0.257075C76.695 0.333959 76.6313 0.426794 76.5884 0.529712C76.5455 0.63263 76.5242 0.743394 76.526 0.855007C76.5245 0.96604 76.5453 1.07623 76.5871 1.17897C76.629 1.28171 76.691 1.3749 76.7694 1.45294C76.8472 1.53723 76.9421 1.60378 77.0475 1.64812C77.153 1.69247 77.2667 1.71358 77.3809 1.71005Z" fill="#E20074"/>
<path d="M65.1688 3.06141C64.7213 3.04982 64.2776 3.14637 63.8747 3.34299C63.4719 3.53961 63.1217 3.83057 62.8534 4.1915C62.3045 4.94924 62.03 5.87358 62.0757 6.81045C62.0328 7.74511 62.3071 8.66664 62.8534 9.42341C63.1126 9.78279 63.4542 10.0738 63.8491 10.2716C64.2439 10.4694 64.6804 10.5682 65.1213 10.5595C65.5791 10.5791 66.0347 10.4859 66.4486 10.2879C66.8624 10.0899 67.222 9.79317 67.4961 9.42341C68.0451 8.66112 68.3194 7.73306 68.2738 6.79251C68.3169 5.86153 68.0424 4.94373 67.4961 4.1915C67.227 3.82851 66.875 3.53625 66.4698 3.33952C66.0647 3.14279 65.6184 3.04738 65.1688 3.06141ZM65.1688 10.0632C64.9175 10.0704 64.6699 10.0012 64.4581 9.86471C64.2463 9.72821 64.0803 9.53069 63.9815 9.29785C63.6615 8.48281 63.5198 7.6079 63.5659 6.73271C63.5659 5.36943 63.7915 4.45459 64.2427 3.98223C64.3596 3.8494 64.5031 3.74292 64.6637 3.66977C64.8244 3.59661 64.9985 3.55842 65.1748 3.55769C65.3839 3.55988 65.5887 3.61763 65.7685 3.72511C66.0485 3.90705 66.2677 4.16953 66.3978 4.47851C66.6685 5.21394 66.7877 5.99721 66.7481 6.78055C66.7599 8.96898 66.2335 10.0632 65.1688 10.0632Z" fill="#E20074"/>
<path d="M72.6025 3.12719C72.127 3.12138 71.6645 3.28438 71.2964 3.5876C71.0745 3.77006 70.9028 4.00682 70.7977 4.27522V0L68.6188 0.107628V0.579995H68.7316C68.838 0.565002 68.9464 0.57384 69.049 0.60588C69.1517 0.637921 69.246 0.692373 69.3253 0.765354C69.4924 1.08242 69.5587 1.44351 69.5153 1.79978V8.82549C69.5298 9.24337 69.5059 9.6617 69.4441 10.0752C69.4265 10.1651 69.4007 10.2532 69.3669 10.3383H69.8715C69.9823 10.1509 70.0892 9.98946 70.1921 9.85393C70.299 9.69249 70.3999 9.61476 70.489 9.61476C70.587 9.62359 70.6791 9.66576 70.7502 9.73434C70.9109 9.87534 71.0794 10.0071 71.2548 10.129C71.6235 10.3723 72.0549 10.5012 72.4956 10.4997C72.8921 10.5089 73.2845 10.418 73.6371 10.2352C73.9897 10.0524 74.2912 9.7836 74.5142 9.45331C75.0811 8.64356 75.3688 7.66904 75.3335 6.67891C75.3865 5.67478 75.0598 4.68772 74.4192 3.91646C74.1926 3.65856 73.9123 3.45413 73.5983 3.31771C73.2843 3.18129 72.9443 3.11624 72.6025 3.12719ZM72.3353 9.95558C72.084 9.96097 71.8372 9.88786 71.6289 9.7463C71.3706 9.578 71.1648 9.33964 71.0352 9.05868C70.7491 8.32055 70.6196 7.53026 70.6552 6.7387C70.6552 5.44717 70.9224 4.55027 71.4626 4.05996C71.7097 3.80938 72.0441 3.66567 72.3947 3.65935C72.628 3.65971 72.8555 3.73215 73.0466 3.86687C73.2377 4.0016 73.3832 4.19213 73.4634 4.41274C73.7488 5.14062 73.8783 5.92103 73.8433 6.70282C73.8473 8.87133 73.3446 9.95558 72.3353 9.95558Z" fill="#E20074"/>
<path d="M87.9673 9.32789C87.8094 9.52801 87.6078 9.68877 87.3782 9.79766C87.1486 9.90655 86.8971 9.96063 86.6433 9.95572C86.3299 9.96619 86.0215 9.87393 85.7646 9.69279C85.5076 9.51164 85.316 9.25141 85.2185 8.95119C84.9807 8.24549 84.876 7.50123 84.9098 6.75678H89.0656C89.0627 6.02925 88.9026 5.31108 88.5966 4.65205C88.4076 4.17567 88.0793 3.76842 87.6551 3.48436C87.231 3.20029 86.7311 3.05283 86.2218 3.06155C85.8815 3.06406 85.5458 3.14133 85.2382 3.28798C84.9306 3.43463 84.6584 3.64712 84.4407 3.91062C83.7769 4.70586 83.4374 5.72519 83.4908 6.76276C83.4104 7.84568 83.751 8.91771 84.4407 9.75242C84.691 10.023 84.9958 10.2367 85.3347 10.379C85.6736 10.5213 86.0388 10.589 86.4059 10.5776C87.4903 10.5776 88.3552 9.92981 89.0003 8.63429L88.5432 8.39511C88.3927 8.73016 88.1991 9.04379 87.9673 9.32789ZM85.0879 4.92112C85.3313 4.04216 85.7469 3.59969 86.3287 3.59969C86.9105 3.59969 87.237 3.95845 87.4745 4.66999C87.6234 5.17205 87.6916 5.69488 87.6764 6.21864H84.9335C84.9284 5.7812 84.9803 5.34498 85.0879 4.92112Z" fill="#E20074"/>
<path d="M82.1899 9.68053C82.0265 9.35367 81.9625 8.98552 82.0059 8.62219V0L79.7736 0.107628V0.579995H79.9457C80.0521 0.566225 80.1602 0.57565 80.2626 0.607631C80.365 0.639612 80.4595 0.693403 80.5394 0.765354C80.697 1.08757 80.7549 1.45002 80.7057 1.80576V8.62219C80.7491 8.98552 80.685 9.35367 80.5216 9.68053C80.4416 9.75248 80.3472 9.80627 80.2448 9.83825C80.1424 9.87023 80.0343 9.87966 79.9279 9.86589H79.6786V10.3383H83.0092V9.86589H82.7599C82.6574 9.87514 82.5541 9.86349 82.4561 9.83165C82.3582 9.7998 82.2677 9.7484 82.1899 9.68053Z" fill="#E20074"/>
<path d="M78.3312 9.68061C78.1619 9.35571 78.0955 8.98632 78.1412 8.62227V3.17511L75.9089 3.27676V3.7551H76.0811C76.1869 3.74347 76.294 3.75335 76.396 3.78417C76.498 3.81498 76.5928 3.86609 76.6748 3.93448C76.8379 4.25714 76.902 4.6214 76.8588 4.98087V8.62227C76.9022 8.98561 76.8382 9.35376 76.6748 9.68061C76.5948 9.75257 76.5004 9.80636 76.3979 9.83834C76.2955 9.87032 76.1875 9.87975 76.0811 9.86597H75.8317V10.3383H79.1623V9.86597H78.9249C78.8185 9.88097 78.7101 9.87213 78.6075 9.84009C78.5048 9.80805 78.4105 9.7536 78.3312 9.68061Z" fill="#E20074"/>
<path d="M56.7271 7.63567L54.5839 0.107697H51.6154V0.592023H51.9004C52.0745 0.587557 52.2484 0.607683 52.4169 0.651815C52.519 0.685994 52.6098 0.747433 52.6799 0.829574C52.75 0.911715 52.7965 1.01147 52.8147 1.1182C52.8524 1.34933 52.8664 1.58377 52.8563 1.81778V7.74928C52.8637 8.14849 52.8478 8.5478 52.8088 8.94514C52.7788 9.20575 52.6615 9.44828 52.4763 9.63276C52.3134 9.78186 52.1026 9.86678 51.8826 9.87194H51.6154V10.3622H54.762V9.87194H54.5839C54.3328 9.89672 54.0817 9.82475 53.8813 9.67053C53.6808 9.5163 53.5457 9.29129 53.5034 9.04081C53.4335 8.61413 53.4077 8.18132 53.4262 7.74928V1.03449L56.1097 10.3383H56.5787L59.2622 1.03449V8.34123C59.2663 8.62286 59.2524 8.90447 59.2206 9.18432C59.2096 9.34587 59.1423 9.49833 59.0307 9.61483C58.8011 9.79379 58.5121 9.87725 58.2232 9.84802H58.0926V10.3383H61.916V9.84802H61.7082C61.1798 9.84802 60.8592 9.68658 60.7524 9.37565C60.6818 9.03571 60.6539 8.68818 60.6692 8.34123V2.11077C60.6666 1.82502 60.6825 1.5394 60.7167 1.25573C60.727 1.09692 60.7921 0.946729 60.9008 0.831196C61.1289 0.648985 61.4184 0.563221 61.7082 0.592023H61.916V0.107697H58.9475L56.7271 7.63567Z" fill="#E20074"/>
<path d="M46.67 6.88846H48.7242V4.81363H46.67V6.88846Z" fill="#E20074"/>
<path d="M44.5616 10.3384H47.067V9.7405C46.7939 9.7405 46.5921 9.7405 46.4733 9.7405C46.1814 9.73304 45.9008 9.62546 45.6778 9.43555C45.4405 9.05219 45.342 8.59809 45.3987 8.15V0.59811C45.7696 0.590229 46.1378 0.661251 46.4795 0.80653C46.8212 0.951809 47.1286 1.16808 47.3817 1.4412C47.9017 2.1305 48.1926 2.96746 48.2128 3.83293L48.7472 3.74323L48.6462 0.15564H40.4948L40.3939 3.74323L40.9342 3.83293C40.9545 2.96746 41.2453 2.1305 41.7654 1.4412C42.0179 1.16747 42.3252 0.950799 42.667 0.805472C43.0088 0.660146 43.3774 0.58947 43.7483 0.59811V8.15C43.8038 8.59881 43.7031 9.05313 43.4633 9.43555C43.2347 9.63642 42.9415 9.7469 42.6381 9.74648C42.5273 9.74648 42.3294 9.74648 42.0444 9.74648V10.3444H44.5557" fill="#E20074"/>
<path d="M42.454 4.81363H40.3939V6.88846H42.454V4.81363Z" fill="#E20074"/>
</svg>
