<svg width="40" height="41" viewBox="0 0 40 41" fill="none" xmlns="http://www.w3.org/2000/svg">
<path fill-rule="evenodd" clip-rule="evenodd" d="M6.58049 10.8066H33.4188C34.2888 10.8066 35.0005 11.5183 35.0005 12.3883V12.5583C35.0005 13.4283 34.2888 14.14 33.4188 14.14H6.58049C5.71049 14.14 5.00049 13.4283 5.00049 12.5583V12.3883C5.00049 11.5183 5.71049 10.8066 6.58049 10.8066ZM33.4188 19.14H6.58049C5.71049 19.14 5.00049 19.8516 5.00049 20.7216V20.8916C5.00049 21.7616 5.71049 22.4733 6.58049 22.4733H33.4188C34.2888 22.4733 35.0005 21.7616 35.0005 20.8916V20.7216C35.0005 19.8516 34.2888 19.14 33.4188 19.14ZM33.4188 27.4733H6.58049C5.71049 27.4733 5.00049 28.185 5.00049 29.055V29.225C5.00049 30.095 5.71049 30.8066 6.58049 30.8066H33.4188C34.2888 30.8066 35.0005 30.095 35.0005 29.225V29.055C35.0005 28.185 34.2888 27.4733 33.4188 27.4733Z" fill="black"/>
</svg>
